{"title":"Shrek the Third 2007 DVDrip Dutch English Klam","uid":6550876,"size":1632278855,"categoryP":"video","categoryS":"movies","magnet":"?xt=urn:btih:c99efddd6e95b4ce2d33f5263b4f7a10957f9053&amp;dn=Shrek+the+Third+2007+DVDrip+Dutch+English+Klam&amp;tr=udp%3A%2F%2Ftracker.openbittorrent.com%3A80&amp;tr=udp%3A%2F%2Fopen.demonii.com%3A1337&amp;tr=udp%3A%2F%2Ftracker.coppersurfer.tk%3A6969&amp;tr=udp%3A%2F%2Fexodus.desync.com%3A6969","seeders":0,"leechers":2,"uploader":"Klambake","files":-1,"time":1311067419,"description":"Nederlands of Engels gesproken\nEnglish or Dutch spoken\n\nMet bekende Nederlandse stemmen,\nShrek (Myers) en Fiona (Diaz) zijn waarnemend koning en koningin. Ze vinden er maar niets aan, dus gaat Shrek samen met Donkey (Murphy) en Puss In Boots (Banderas) op zoek naar de ware troonopvolger. Dat blijkt een neef van Koningin Lillian te zijn, Artie, die op kostschool zit en totaal geen interesse heeft in het koningschap. Terwijl Shrek weg is, is Prince Charming bezig met een staatsgreep om Far Far Away over te nemen.\n\nWith the voices of Mike Myers, Eddie Murphy and Cameron Diaz\nWhen his new father-in-law, King Harold falls ill, Shrek is looked at as the heir to the land of Far, Far Away. Not one to give up his beloved swamp, Shrek recruits his friends Donkey and Puss in Boots to install the rebellious Artie as the new king. Princess Fiona, however, rallies a band of royal girlfriends to fend off a coup d'etat by the jilted Prince Charming. \n\n------------------ Dutch Friends ------------------\nYou can find my Friends at: http://www.Film-Test.nl \n------ They got my dutchs subs ---- and more ------\n\nGeneral:\n\nComplete name                    : Shrek The third\\Shrek The Third.avi\nFormat                           : AVI\nFormat/Info                      : Audio Video Interleave\nFile size                        : 1.52 GiB\nDuration                         : 1h 28mn\nOverall bit rate                 : 2 447 Kbps\n\nVideo:\n\nFormat                           : MPEG-4 Visual\nFormat profile                   : Simple@L3\nFormat settings, BVOP            : No\nFormat settings, QPel            : No\nFormat settings, GMC             : No warppoints\nFormat settings, Matrix          : Default (H.263)\nCodec ID                         : XVID\nCodec ID/Hint                    : XviD\nDuration                         : 1h 28mn\nBit rate                         : 1 598 Kbps\nWidth                            : 652 pixels\nHeight                           : 352 pixels\nDisplay aspect ratio             : 1.852\nFrame rate                       : 25.000 fps\nColor space                      : YUV\nChroma subsampling               : 4:2:0\nBit depth                        : 8 bits\nScan type                        : Progressive\nBits/(Pixel*Frame)               : 0.279\nStream size                      : 1 016 MiB (65%)\nWriting library                  : XviD 1.1.2 (UTC 2006-11-01)\n\nAudio's:\n\nFormat                           : AC-3\nFormat/Info                      : Audio Coding 3\nMode extension                   : CM (complete main)\nCodec ID                         : 2000\nDuration                         : 1h 28mn\nBit rate mode                    : Constant\nBit rate                         : 448 Kbps\nChannel(s)                       : 6 channels\nChannel positions                : Front: L C R, Side: L R, LFE\nSampling rate                    : 48.0 KHz\nBit depth                        : 16 bits\nStream size                      : 285 MiB (18%)\nAlignment                        : Aligned on interleaves\nInterleave, duration             : 32 ms (0.80 video frame)\nInterleave, preload duration     : 32 ms\n\n","torrent":{"xt":"urn:btih:c99efddd6e95b4ce2d33f5263b4f7a10957f9053","amp;dn":"Shrek+the+Third+2007+DVDrip+Dutch+English+Klam","amp;tr":["udp%3A%2F%2Ftracker.openbittorrent.com%3A80","udp%3A%2F%2Fopen.demonii.com%3A1337","udp%3A%2F%2Ftracker.coppersurfer.tk%3A6969","udp%3A%2F%2Fexodus.desync.com%3A6969"],"infoHash":"c99efddd6e95b4ce2d33f5263b4f7a10957f9053","infoHashBuffer":{"type":"Buffer","data":[201,158,253,221,110,149,180,206,45,51,245,38,59,79,122,16,149,127,144,83]},"announce":[],"urlList":[]}}